<?xml version="1.0" encoding="utf-8"?>
<!-- Generator: Adobe Illustrator 22.1.0, SVG Export Plug-In . SVG Version: 6.00 Build 0)  -->
<svg version="1.1" id="Layer_1" xmlns="http://www.w3.org/2000/svg" xmlns:xlink="http://www.w3.org/1999/xlink" x="0px" y="0px"
	 viewBox="0 0 166.3 254.4" enable-background="new 0 0 166.3 254.4" xml:space="preserve">
<metadata><?xpacket begin="﻿" id="W5M0MpCehiHzreSzNTczkc9d"?>
<x:xmpmeta xmlns:x="adobe:ns:meta/" x:xmptk="Adobe XMP Core 5.6-c143 79.161356, 2017/09/07-01:11:22        ">
   <rdf:RDF xmlns:rdf="http://www.w3.org/1999/02/22-rdf-syntax-ns#">
      <rdf:Description rdf:about=""/>
   </rdf:RDF>
</x:xmpmeta>
                                                                                                    
                                                                                                    
                                                                                                    
                                                                                                    
                                                                                                    
                                                                                                    
                                                                                                    
                                                                                                    
                                                                                                    
                                                                                                    
                                                                                                    
                                                                                                    
                                                                                                    
                                                                                                    
                                                                                                    
                                                                                                    
                                                                                                    
                                                                                                    
                                                                                                    
                                                                                                    
                           
<?xpacket end="w"?></metadata>
<g>
	<linearGradient id="SVGID_1_" gradientUnits="userSpaceOnUse" x1="82.3143" y1="-8.185452e-12" x2="82.3143" y2="144.5697">
		<stop  offset="0" style="stop-color:#881002"/>
		<stop  offset="0.275" style="stop-color:#B60E0C"/>
		<stop  offset="0.6792" style="stop-color:#F29100"/>
		<stop  offset="1" style="stop-color:#FFCB00"/>
	</linearGradient>
	<path fill="url(#SVGID_1_)" d="M164.6,0v144.5h-45.2V0H164.6z M2.1,0L85,145.1l26-45.5L55,0H2.1z M27.1,91C12.2,91,0,103.2,0,118.2
		c0,15,12.2,27.1,27.1,27.1c15,0,27.1-12.2,27.1-27.1C54.3,103.2,42.1,91,27.1,91z"/>
	<polygon fill="#FFFFFF" points="5.2,254.4 5.2,203.3 8.8,203.3 29.3,233.5 49.8,203.3 53.3,203.3 53.3,254.4 49.5,254.4 
		49.5,210.1 29.4,239.4 29.1,239.4 8.9,210.1 8.9,254.4 	"/>
	<path fill="#FFFFFF" d="M92.4,203h-3.6L65,254.4h3.9l6.5-14.3h30.1l6.5,14.3h4.2L92.4,203z M77,236.7l13.5-29.5l13.4,29.5H77z"/>
	<polygon fill="#FFFFFF" points="121.1,254.4 141.4,228.4 121.8,203.3 126.3,203.3 143.8,225.9 161.1,203.3 165.6,203.3 
		145.9,228.4 166.3,254.4 161.8,254.4 143.6,230.8 125.5,254.4 	"/>
	<polygon fill="#FFFFFF" points="12,191.6 12,168.2 3.2,168.2 3.2,165.5 23.7,165.5 23.7,168.2 15,168.2 15,191.6 	"/>
	<path fill="#FFFFFF" d="M54,169c-2.5-2.6-5.7-3.9-9.6-3.9c-3.9,0-7.1,1.3-9.6,4c-2.5,2.7-3.8,5.8-3.8,9.5v0.1
		c0,3.7,1.2,6.9,3.7,9.5c2.5,2.6,5.7,3.9,9.6,3.9c3.9,0,7.1-1.3,9.6-4c2.5-2.7,3.8-5.8,3.8-9.5v-0.1C57.8,174.8,56.5,171.6,54,169z
		 M54.7,178.6c0,3-1,5.6-2.9,7.6s-4.4,3.1-7.3,3.1c-3,0-5.4-1-7.4-3.1c-2-2.1-2.9-4.6-2.9-7.7v-0.1c0-3,1-5.6,2.9-7.6
		c1.9-2.1,4.4-3.1,7.3-3.1c3,0,5.4,1,7.4,3.1C53.7,173,54.7,175.6,54.7,178.6L54.7,178.6z"/>
	<polygon fill="#FFFFFF" points="89.1,191.6 89.1,168.2 80.3,168.2 80.3,165.5 100.8,165.5 100.8,168.2 92,168.2 92,191.6 	"/>
	<polygon fill="#FFFFFF" points="111.8,191.6 111.8,165.5 114.7,165.5 114.7,177.1 129.8,177.1 129.8,165.5 132.8,165.5 
		132.8,191.6 129.8,191.6 129.8,179.9 114.7,179.9 114.7,191.6 	"/>
	<polygon fill="#FFFFFF" points="145.7,191.6 145.7,165.5 164.7,165.5 164.7,168.2 148.7,168.2 148.7,177.1 163,177.1 163,179.8 
		148.7,179.8 148.7,189 164.8,189 164.8,191.6 	"/>
</g>
<g>
</g>
<g>
</g>
<g>
</g>
<g>
</g>
<g>
</g>
<g>
</g>
<g>
</g>
<g>
</g>
<g>
</g>
<g>
</g>
<g>
</g>
<g>
</g>
<g>
</g>
<g>
</g>
<g>
</g>
</svg>
